<?xml version="1.0" standalone="no"?>
<!DOCTYPE svg PUBLIC "-//W3C//DTD SVG 20010904//EN"
 "http://www.w3.org/TR/2001/REC-SVG-20010904/DTD/svg10.dtd">
<svg version="1.0" xmlns="http://www.w3.org/2000/svg"
 width="256.000000pt" height="256.000000pt" viewBox="0 0 256.000000 256.000000"
 preserveAspectRatio="xMidYMid meet">

<g transform="translate(0.000000,256.000000) scale(0.100000,-0.100000)"
fill="#000000" stroke="none">
<path d="M470 1991 c0 -6 15 -11 34 -11 58 0 97 -12 111 -34 13 -20 3 -79
-101 -571 -130 -624 -130 -623 -152 -649 -25 -28 -75 -46 -127 -46 -25 0 -45
-5 -45 -11 0 -7 122 -9 408 -6 461 4 473 6 629 83 256 126 413 407 413 739 0
259 -120 425 -355 491 -50 15 -121 18 -437 22 -267 2 -378 0 -378 -7z m695
-43 c117 -61 155 -156 155 -391 0 -269 -56 -495 -162 -652 -104 -156 -249
-232 -429 -223 l-65 3 133 635 c73 349 136 641 138 649 9 24 170 10 230 -21z"/>
<path d="M1976 873 c-12 -12 -6 -33 9 -33 8 0 15 6 15 14 0 17 -14 28 -24 19z"/>
<path d="M1867 790 c-18 -87 -15 -110 14 -110 12 0 16 5 13 15 -3 8 1 46 10
84 20 88 20 91 -3 91 -15 0 -21 -14 -34 -80z"/>
<path d="M1492 838 c-28 -31 -44 -76 -36 -102 9 -29 34 -56 53 -56 12 0 12 3
3 12 -20 20 -15 112 9 142 26 33 2 37 -29 4z"/>
<path d="M1580 835 c0 -27 9 -32 27 -14 14 14 6 39 -13 39 -8 0 -14 -10 -14
-25z"/>
<path d="M2315 819 c-4 -6 -13 -8 -21 -5 -10 4 -14 -2 -14 -20 0 -14 -5 -34
-10 -45 -7 -12 -7 -19 -1 -19 18 0 41 32 41 57 0 18 4 24 15 19 9 -3 15 0 15
9 0 17 -16 20 -25 4z"/>
<path d="M1646 797 c-28 -28 -35 -84 -14 -105 20 -20 25 -14 26 33 1 25 6 54
12 66 17 31 4 34 -24 6z"/>
<path d="M1710 775 c0 -26 -5 -55 -11 -67 -16 -30 -3 -33 25 -5 33 33 36 91 6
107 -19 10 -20 8 -20 -35z"/>
<path d="M1812 813 c-33 -13 -54 -97 -30 -121 23 -23 34 -13 30 27 -2 23 3 51
12 70 16 30 14 35 -12 24z"/>
<path d="M1950 761 c-13 -63 -9 -81 18 -81 12 0 17 9 17 33 0 17 4 49 8 70 7
32 6 37 -11 37 -15 0 -22 -12 -32 -59z"/>
<path d="M2041 763 c-15 -75 -14 -85 6 -81 11 2 21 21 29 58 17 74 17 80 -5
80 -14 0 -21 -12 -30 -57z"/>
<path d="M2121 783 c-7 -99 -7 -98 16 -101 17 -3 20 1 16 16 -2 11 0 35 5 54
6 22 6 41 0 51 -16 29 -34 19 -37 -20z"/>
<path d="M2225 804 c-9 -9 -15 -28 -14 -43 1 -14 -2 -34 -6 -44 -4 -10 -5 -20
-2 -24 4 -3 -4 -13 -16 -23 -18 -15 -19 -20 -8 -34 19 -23 29 -20 24 8 -6 29
10 40 43 32 15 -4 24 -14 24 -26 0 -25 16 -26 30 -1 16 30 1 51 -41 57 -21 4
-39 10 -39 15 0 5 5 9 10 9 6 0 10 12 10 26 0 14 5 34 10 45 13 24 -2 25 -25
3z"/>
<path d="M1576 703 c-6 -14 -5 -15 5 -6 7 7 10 15 7 18 -3 3 -9 -2 -12 -12z"/>
</g>
</svg>
